<svg width="132" height="23" viewBox="0 0 132 23" fill="none" xmlns="http://www.w3.org/2000/svg">
<g clip-path="url(#clip0_1042_10503)">
<path d="M21.0969 8.41915C21.0392 8.24934 20.9331 8.10013 20.7916 7.98994C20.6501 7.87975 20.4795 7.81341 20.3007 7.7991L15.0716 7.38359L12.8087 2.37458C12.7367 2.21324 12.6195 2.07622 12.4712 1.98003C12.323 1.88385 12.1501 1.83262 11.9734 1.83252C11.7968 1.83242 11.6238 1.88347 11.4755 1.97949C11.3272 2.07551 11.2098 2.21241 11.1375 2.37366L8.87473 7.38359L3.64558 7.7991C3.46989 7.81302 3.30193 7.87726 3.16179 7.98413C3.02165 8.09101 2.91527 8.236 2.85537 8.40175C2.79548 8.5675 2.7846 8.747 2.82405 8.91877C2.8635 9.09054 2.9516 9.24731 3.07781 9.37032L6.94212 13.1374L5.57544 19.0554C5.53394 19.2345 5.54724 19.422 5.61361 19.5935C5.67999 19.765 5.79637 19.9125 5.94765 20.0171C6.09894 20.1216 6.27815 20.1782 6.46202 20.1796C6.6459 20.181 6.82595 20.1271 6.97881 20.0249L11.9731 16.6954L16.9675 20.0249C17.1237 20.1286 17.308 20.182 17.4955 20.1779C17.683 20.1738 17.8647 20.1124 18.0162 20.0019C18.1678 19.8914 18.2819 19.7372 18.3431 19.5599C18.4044 19.3827 18.4099 19.1909 18.3589 19.0105L16.6813 13.1402L20.8419 9.396C21.1143 9.15018 21.2143 8.76678 21.0969 8.41915Z" fill="#FF0000"/>
<path d="M48.1105 8.41915C48.0529 8.24934 47.9468 8.10013 47.8053 7.98994C47.6638 7.87975 47.4931 7.81341 47.3144 7.7991L42.0852 7.38359L39.8224 2.37458C39.7504 2.21324 39.6331 2.07622 39.4849 1.98003C39.3367 1.88385 39.1638 1.83262 38.9871 1.83252C38.8104 1.83242 38.6375 1.88347 38.4892 1.97949C38.3408 2.07551 38.2235 2.21241 38.1512 2.37366L35.8884 7.38359L30.6592 7.7991C30.4836 7.81302 30.3156 7.87726 30.1755 7.98413C30.0353 8.09101 29.9289 8.236 29.869 8.40175C29.8092 8.5675 29.7983 8.747 29.8377 8.91877C29.8772 9.09054 29.9653 9.24731 30.0915 9.37032L33.9558 13.1374L32.5891 19.0554C32.5476 19.2345 32.5609 19.422 32.6273 19.5935C32.6937 19.765 32.81 19.9125 32.9613 20.0171C33.1126 20.1216 33.2918 20.1782 33.4757 20.1796C33.6596 20.181 33.8396 20.1271 33.9925 20.0249L38.9868 16.6954L43.9812 20.0249C44.1374 20.1286 44.3217 20.182 44.5091 20.1779C44.6966 20.1738 44.8784 20.1124 45.0299 20.0019C45.1815 19.8914 45.2955 19.7372 45.3568 19.5599C45.4181 19.3827 45.4236 19.1909 45.3726 19.0105L43.695 13.1402L47.8556 9.396C48.128 9.15018 48.228 8.76678 48.1105 8.41915Z" fill="#FF0000"/>
<path d="M75.1254 8.41915C75.0678 8.24934 74.9617 8.10013 74.8202 7.98994C74.6787 7.87975 74.508 7.81341 74.3293 7.7991L69.1001 7.38359L66.8373 2.37458C66.7652 2.21324 66.648 2.07622 66.4998 1.98003C66.3516 1.88385 66.1787 1.83262 66.002 1.83252C65.8253 1.83242 65.6524 1.88347 65.504 1.97949C65.3557 2.07551 65.2384 2.21241 65.1661 2.37366L62.9033 7.38359L57.6741 7.7991C57.4985 7.81302 57.3305 7.87726 57.1904 7.98413C57.0502 8.09101 56.9438 8.236 56.8839 8.40175C56.824 8.5675 56.8132 8.747 56.8526 8.91877C56.8921 9.09054 56.9802 9.24731 57.1064 9.37032L60.9707 13.1374L59.604 19.0554C59.5625 19.2345 59.5758 19.422 59.6422 19.5935C59.7086 19.765 59.8249 19.9125 59.9762 20.0171C60.1275 20.1216 60.3067 20.1782 60.4906 20.1796C60.6745 20.181 60.8545 20.1271 61.0074 20.0249L66.0017 16.6954L70.9961 20.0249C71.1523 20.1286 71.3365 20.182 71.524 20.1779C71.7115 20.1738 71.8933 20.1124 72.0448 20.0019C72.1964 19.8914 72.3104 19.7372 72.3717 19.5599C72.433 19.3827 72.4385 19.1909 72.3875 19.0105L70.7099 13.1402L74.8704 9.396C75.1429 9.15018 75.2428 8.76678 75.1254 8.41915Z" fill="#FF0000"/>
<path d="M102.136 8.41915C102.079 8.24934 101.973 8.10013 101.831 7.98994C101.69 7.87975 101.519 7.81341 101.34 7.7991L96.1111 7.38359L93.8483 2.37458C93.7762 2.21324 93.659 2.07622 93.5108 1.98003C93.3626 1.88385 93.1897 1.83262 93.013 1.83252C92.8363 1.83242 92.6634 1.88347 92.515 1.97949C92.3667 2.07551 92.2493 2.21241 92.1771 2.37366L89.9143 7.38359L84.6851 7.7991C84.5094 7.81302 84.3415 7.87726 84.2013 7.98413C84.0612 8.09101 83.9548 8.236 83.8949 8.40175C83.835 8.5675 83.8242 8.747 83.8636 8.91877C83.9031 9.09054 83.9912 9.24731 84.1174 9.37032L87.9817 13.1374L86.615 19.0554C86.5735 19.2345 86.5868 19.422 86.6532 19.5935C86.7195 19.765 86.8359 19.9125 86.9872 20.0171C87.1385 20.1216 87.3177 20.1782 87.5016 20.1796C87.6854 20.181 87.8655 20.1271 88.0184 20.0249L93.0127 16.6954L98.007 20.0249C98.1633 20.1286 98.3475 20.182 98.535 20.1779C98.7225 20.1738 98.9043 20.1124 99.0558 20.0019C99.2073 19.8914 99.3214 19.7372 99.3827 19.5599C99.4439 19.3827 99.4495 19.1909 99.3985 19.0105L97.7209 13.1402L101.881 9.396C102.154 9.15018 102.254 8.76678 102.136 8.41915Z" fill="#FF0000"/>
<path d="M129.15 8.41915C129.093 8.24934 128.987 8.10013 128.845 7.98994C128.704 7.87975 128.533 7.81341 128.354 7.7991L123.125 7.38359L120.862 2.37458C120.79 2.21324 120.673 2.07622 120.525 1.98003C120.376 1.88385 120.204 1.83262 120.027 1.83252C119.85 1.83242 119.677 1.88347 119.529 1.97949C119.381 2.07551 119.263 2.21241 119.191 2.37366L116.928 7.38359L111.699 7.7991C111.523 7.81302 111.355 7.87726 111.215 7.98413C111.075 8.09101 110.969 8.236 110.909 8.40175C110.849 8.5675 110.838 8.747 110.878 8.91877C110.917 9.09054 111.005 9.24731 111.131 9.37032L114.996 13.1374L113.629 19.0554C113.587 19.2345 113.601 19.422 113.667 19.5935C113.733 19.765 113.85 19.9125 114.001 20.0171C114.152 20.1216 114.332 20.1782 114.515 20.1796C114.699 20.181 114.879 20.1271 115.032 20.0249L120.027 16.6954L125.021 20.0249C125.177 20.1286 125.361 20.182 125.549 20.1779C125.736 20.1738 125.918 20.1124 126.07 20.0019C126.221 19.8914 126.335 19.7372 126.397 19.5599C126.458 19.3827 126.463 19.1909 126.412 19.0105L124.735 13.1402L128.895 9.396C129.168 9.15018 129.268 8.76678 129.15 8.41915Z" fill="#FF0000"/>
</g>
<defs>
<clipPath id="clip0_1042_10503">
<rect width="130.068" height="22.0136" fill="white" transform="translate(0.966064)"/>
</clipPath>
</defs>
</svg>
